<svg width="136" height="136" viewBox="0 0 136 136" fill="none" xmlns="http://www.w3.org/2000/svg">
<g clip-path="url(#clip0_627_5)">
<path d="M68 127.871C101.066 127.871 127.871 101.066 127.871 68C127.871 34.9339 101.066 8.12857 68 8.12857C34.9339 8.12857 8.12857 34.9339 8.12857 68C8.12857 101.066 34.9339 127.871 68 127.871Z" fill="#D91E23"/>
<path d="M47.7714 83.4929C49.2929 81.6929 50.3 79.6571 50.7714 77.3857C51.2429 75.1786 51.1357 73.3143 50.4714 71.7714C49.8071 70.2286 48.5643 69.1143 46.7643 68.4071C48.1786 67.7429 49.2929 67.0143 50.1071 66.2214C51.6071 64.8071 52.5929 62.9214 53.0857 60.5857C53.5571 58.3143 53.3643 56.3643 52.55 54.7357C51.1571 52.0786 48.1357 50.7286 43.4643 50.6643H40.7214C40.55 50.6643 40.3571 50.7286 40.2286 50.8571C38.6857 52.3357 37.2071 54.1143 35.9214 56.2357C35.6429 56.7071 35.9857 57.3071 36.5214 57.3071H39.4786C41.3214 57.3071 42.8214 57.5 43.9357 57.9071C45.1786 58.4857 45.6286 59.6643 45.2643 61.4429C44.9214 63.05 44.15 64.1643 42.9714 64.7857C41.7714 65.4286 40.3357 65.75 38.6643 65.75H29.2571C29.9429 62.5786 30.95 59.7714 32.1714 57.3071C33.4571 54.7571 35 52.55 36.7571 50.6643C39.2857 47.9429 42.2429 45.8857 45.5 44.3429C45.5857 44.3 45.6714 44.2571 45.7571 44.2357C66.6071 34.5071 98.5143 46.2071 98.5143 46.2071L97.2714 48.3071C97.1429 48.5429 97.3143 48.8214 97.5714 48.8L104.407 48.2643C104.686 48.2429 104.814 47.9 104.6 47.6857L99.1571 42.6071C98.9214 42.3929 98.5571 42.6071 98.6214 42.9071L98.9643 44.5357C60.8643 26.3 37.0786 34.7857 27.05 50.6429C24.9286 54.1571 23.3857 58.0143 22.5071 62C22.5071 62.0429 22.4857 62.1071 22.4643 62.15L16.7857 88.9357H34.1214C36.0714 88.9357 37.9357 88.7643 39.6714 88.4214C41.4071 88.0786 42.9714 87.4357 44.3857 86.4929C45.65 85.6786 46.7857 84.6929 47.7714 83.4929ZM42.8429 76.85C42.35 79.2071 41.15 80.7929 39.2643 81.6286C38.2357 82.0786 36.8857 82.3143 35.2143 82.3143H25.8286L27.9714 72.1143H37.4857C39.1571 72.1357 40.4 72.35 41.2143 72.7571C42.7143 73.4857 43.25 74.8571 42.8429 76.85Z" fill="white"/>
<path d="M70.85 88.9357H78.4357L82.4857 69.8857C83.2357 66.3286 82.8286 63.8 81.3071 62.2786C79.7857 60.7571 77.5571 59.9857 74.6214 59.9857C72.2857 59.9857 70.2286 60.5643 68.4714 61.7C67.4857 62.3429 66.3714 63.3929 65.1071 64.85L65.9857 60.7143H58.85L52.85 88.9571H60.2214L63.4571 73.6571C63.8214 71.9 64.3571 70.4643 65.0857 69.35C66.4786 67.2286 68.4286 66.1571 70.9357 66.1571C72.9714 66.1571 74.2143 66.8857 74.6214 68.3429C74.8571 69.1357 74.8143 70.2714 74.4929 71.7714L70.85 88.9357Z" fill="white"/>
<path d="M118.979 60.6071C119.45 58.3357 119.257 56.3857 118.443 54.7571C117.05 52.1 114.029 50.75 109.357 50.6857H90.7786L82.6571 88.9357H98.9643C99.0714 88.9357 99.1786 88.8929 99.2643 88.8286C101.214 87.2857 102.929 85.2929 104.064 82.7429C104.214 82.4 103.914 82.0357 103.55 82.1C102.821 82.2286 102.007 82.2929 101.086 82.2929H91.7L93.8643 72.0929H103.357C105.007 72.1143 106.271 72.3286 107.086 72.7357C108.564 73.4857 109.1 74.8357 108.693 76.8286C108.029 81.9929 106.014 85.8714 103.1 88.7643C98.8786 92.9643 92.7714 95.0429 86.2357 95.9H86.2143C70.0786 98 51.2643 92.5571 51.2643 92.5571L52.3143 91.25C52.5071 90.9929 52.3357 90.6286 52.0143 90.65L46.1214 90.95C45.8214 90.9714 45.6714 91.3143 45.8429 91.55L49.4429 96.2214C49.6357 96.4786 50.0214 96.3714 50.0857 96.0714L50.5143 94.1643C51.5214 94.7643 52.7643 95.3429 54.1143 95.8786C54.1357 95.8786 54.1571 95.9 54.1786 95.9C76.2286 105.65 92.9643 100.25 92.9643 100.25H92.9214C113.514 94.9786 124.357 76.4 114.564 69.5C114.564 69.5 114.543 69.5 114.543 69.4786C114.007 69.05 113.364 68.6857 112.636 68.4071C114.05 67.7429 115.164 67.0143 115.979 66.2214C117.479 64.8071 118.464 62.9429 118.979 60.6071ZM104.557 65.7714H95.1714L96.9714 57.3286H105.371C107.214 57.3286 108.714 57.5214 109.829 57.9286C111.071 58.5071 111.521 59.6857 111.157 61.4643C110.814 63.0714 110.043 64.1857 108.864 64.8071C107.686 65.45 106.25 65.7714 104.557 65.7714Z" fill="white"/>
</g>
<rect x="4" y="4" width="128" height="128" rx="64" stroke="white" stroke-width="8"/>
<defs>
<clipPath id="clip0_627_5">
<rect x="8" y="8" width="120" height="120" rx="60" fill="white"/>
</clipPath>
</defs>
</svg>
